<?xml version="1.0" encoding="UTF-8"?>
<!DOCTYPE svg PUBLIC "-//W3C//DTD SVG 1.1//EN" "http://www.w3.org/Graphics/SVG/1.1/DTD/svg11.dtd">
<!-- Creator: CorelDRAW 2020 (64 Bit) -->
<?xml-stylesheet href="Background_style.css" type="text/css"?>
<svg xmlns="http://www.w3.org/2000/svg" xml:space="preserve" width="210mm" height="50mm" version="1.1" style="shape-rendering:geometricPrecision; text-rendering:geometricPrecision; image-rendering:optimizeQuality; fill-rule:evenodd; clip-rule:evenodd"
viewBox="0 0 21000 5000"
 xmlns:xlink="http://www.w3.org/1999/xlink"
 xmlns:xodm="http://www.corel.com/coreldraw/odm/2003">
 <defs>
   <clipPath id="id0">
    <path d="M-7.13 6.13l21000 0 0 5000 -21000 0 0 -5000z"/>
   </clipPath>
 </defs>
 <g id="Camada_x0020_1">
  <metadata id="CorelCorpID_0Corel-Layer"/>
  <polygon class="fil0" points="-7.13,6.13 20992.87,6.13 20992.87,5006.13 -7.13,5006.13 "/>
  <g style="clip-path:url(#id0)">
   <g id="_1704307596288">
    <path id="1" class="fil1" d="M4744.86 7758.28l374.57 0 -373.61 -382.67 508.87 -514.66 891.56 897.33 293.54 0 -1047.54 -1059.34 286.15 -295.93 295.41 -286.46 577.15 -576.06 28.52 16.71 217.36 223.43 230.44 231.66 -173.8 174.76 -526.22 534.99 166.92 167.92 318.39 -317.86 109.26 -103.71 108.16 -104.84 100.82 -112.06 216.07 -204.74 -980.91 -999.27 -973.5 -974.9 285.71 -295.77 295.67 -286.36 596.81 -578.84 226.51 242.58 229.77 232.03 -352.82 364.52 -347.65 357.15 167.71 155.44 429.28 -419.43 423.14 -422.84 -1469.13 -1490.68 -484.88 -483.59 284.88 -296.77 295.4 -286.64 440.55 -439.48 157.9 -138.86 455.96 475.1 -181.86 180.9 -170.48 184.41 -347.09 354.39 166.33 156.72 429.08 -418.94 423.68 -423.64 -980.53 -999 -973.27 -974.21 1161.77 -1162.66 472.26 475.96 -703.73 713.52 170.74 162.23 210.71 -210.79 642.6 -630.84 -891.34 -914.21 -292.79 0 102.1 115.2 105.6 111.92 -248.39 253.07 -245.19 251.76 -1509.21 1510.08 816.57 816.96 188.21 -173.57 -626.33 -642.61 499.53 -509.43 280.73 270.08 418.19 419.3 147.51 136.39 258.4 267.6 19.74 26.44 -1754.16 1756.43 -247.95 258.43 816.07 817.5 188.55 -173.77 -627 -642.89 500.35 -508.67 698.39 688.71 146.93 136.97 279.23 293.37 -246.65 254.99 -1757.32 1760.48 816.84 817.45 189.23 -173.9 -627.3 -643.33 513.18 -509.77 555.42 550.43 129.79 140.04 147.52 136.57 279.38 293.11 -1000.12 1006.31 -1002.05 1008.11 375.71 384.54zm16248.01 -242.09l0 -328.94 -168.32 157.01 168.32 171.93zm-10664.02 -171.93l385.4 414.02 368.96 0 -594.64 -585.39 -159.72 171.37zm10664.02 -5080.94l0 -329.11 -168.62 156.93 168.62 172.18zm-10664.32 -172.18l624.45 642.59 -230.45 233.52 -296.95 303.49 -1133.28 -1130.68 1204.85 -1213.97 812.32 -833 -606.92 -597.23 -214 -203.3 -159.24 173.28 625.92 644.09 -530.78 532.65 -574.41 -569.66 -558.24 -579.08 302.73 -303.46 596.25 -596.12 1118.02 -1127.02 -206.92 -213.26 -370.16 0 222.78 229.73 -528.33 530.49 -384.84 -375.32 -371.33 -384.9 -292.09 0 900.09 914.71 -866.44 867.11 -291.33 292.12 -484.24 -480.7 361.54 -353.25 348.71 -363.96 -151.7 -153.52 -867.5 853.13 489.79 487.94 241.31 241.32 731.83 744.57 240.83 241.63 247.2 249.68 -1157.77 1159.04 -480.29 -469.32 707.3 -729.01 -152.45 -153.55 -867.09 853.78 1950.3 1965.14 -1157.77 1160.54 -479.85 -471.55 706.25 -727.39 -151.68 -153.78 -441.36 429.69 -428.72 439.12 490.86 473.35 1461.65 1476.71 -283.3 285.31 -722.44 725.13 -151.41 149.68 -480.74 -469.97 708.31 -730.22 -153.53 -152.38 -870.01 867.97 1036.07 1035.23 293.7 0 -362.08 -366.39 1205.2 -1212.92 195.43 -218.14 207.69 -203.99 408.92 -411.27 -406.26 -400.5 -414.38 -399.48 -159.52 172.13 396.92 418.34 228.82 226.8 -528.91 533.65 -569.21 -563.94 -564.74 -566.55 142.73 -156.89 451.94 -456.54 610.57 -599.26 402.6 -423.12 409.72 -411.05 -820.92 -799.92 -160.02 171.9zm10664.32 2797.69l0 -328.43 -168.12 157.32 168.12 171.11zm0 -5252.43l0 -328.76 -167.84 158.2 167.84 170.56zm0 -1993.71l0 -388.71 -483.96 0 423.7 432.5 60.26 -43.79zm-10312.06 -155.7l-183.64 -233.01 -483.97 0 423.71 432.5 243.9 -199.49zm2323.78 -233.01l-374.46 0 423.96 432.98 102.81 -92.63 85.72 -102.26 -238.03 -238.09zm-10495.7 0l-374.46 0 423.96 432.98 102.8 -92.63 85.73 -102.26 -238.03 -238.09zm15747.74 0l-374.08 0 424.24 432.78 187.98 -173.27 -238.14 -259.51zm-10495.7 0l-374.08 0 424.24 432.78 187.98 -173.27 -238.14 -259.51zm7869.73 0l-372.51 0 425.79 429.3 184.93 -170.56 -238.21 -258.74zm-10495.7 0l-372.52 0 425.8 429.3 184.92 -170.56 -238.2 -258.74zm-5142.09 10279.52l225.67 224.78 368.96 0 -594.63 -585.39 0 360.61zm13347.39 224.78l368.41 0 -599.47 -585.55 -163.67 170.49 394.73 415.06zm-10495.7 0l368.41 0 -599.47 -585.55 -163.68 170.49 394.74 415.06zm13121.73 0l369.51 0 -598.75 -585.55 -165.27 170.9 394.51 414.65zm-10495.71 0l369.52 0 -598.75 -585.55 -165.27 170.9 394.5 414.65zm13123.84 0l368.62 0 -597.72 -582.36 -173.58 170.89 402.68 411.47zm-10495.71 0l368.63 0 -597.72 -582.36 -173.58 170.89 402.67 411.47zm-8105.84 -9814.19l0 338.27 820.25 -815.12 -206.92 -213.26 -370.16 0 222.78 229.73 -465.95 460.38zm20500.06 9814.19l374.41 0 -370.79 -397.46 123.59 -117.22 120.62 -120.69 252.11 -251.23 0 -374.31 -221.05 216.56 -653.7 658.42 374.81 385.93zm-10495.7 0l374.41 0 -370.8 -397.46 123.6 -117.22 120.62 -120.69 252.11 -251.23 0 -2.9 892.31 889.5 294.14 0 -1048.98 -1059.07 279.5 -289.74 295.39 -286.63 584.98 -582.79 35.99 24.28 29.23 28.13 410.31 419.83 -702.59 725.45 166.21 155.85 213.95 -217.21 219.28 -206.54 423.21 -423.98 -235.56 -252.92 -248.87 -247.99 -978.63 -980.23 -491.62 -493.36 864.55 -866.15 294.54 -291.82 36.35 24.46 81.46 89.37 357.49 359 -703.09 725.11 166.84 156.16 213.82 -217.4 218.84 -206.98 423.15 -423.16 -972.61 -991.58 -980.9 -982.3 277.49 -289.58 294.89 -287.06 586.27 -582 475.42 472.71 -700.06 709.75 164.19 170.8 219.44 -210.49 635.87 -636.61 -482.99 -501.46 -1471.02 -1472.64c378.16,-394.58 771.06,-773.6 1159.15,-1158.58l238.78 234.37 236.52 238.79 -700.22 709.75 168.14 166.08 216.13 -205.42 636.3 -637.4 -667.61 -686.27 -223.51 -226.83 -292.8 0 209.74 206.92 -1993.9 2033.33 607.46 610.9 210.85 204.47 193.85 -181.28 -137.07 -139.26 -501.94 -496.49 501.94 -500.63 0 -2.25 422.33 416.75 138.86 130.8 137.2 146.94 418.31 422.99 -845.11 848.02 -493.05 506.11 -220.28 219.89 -433.29 439.06 194.89 200.13 623.36 615.69 188.52 -181.51 -131.74 -138.37 -497.61 -493.32 497.61 -503.5 0 -5.87 279.4 278.12 418.93 418.62 418.68 423.01 -844.78 848.37 -280.83 297.55 -866.82 867.21 195.91 199.44 411.51 411.74 211.22 204.92 189.86 -181.85 -133.08 -138.2 -501.94 -497.1 501.94 -500.17 0 -3.26 629.68 621.25 75.17 66.64 412.16 429.53 -1338.06 1354.61 -653.71 658.42 374.82 385.93zm-10004.36 -8106l466.68 457.65 -466.68 460.24 0 339.95 820.92 -817.03 -606.92 -597.23 -214 -203.3 0 359.72zm0 5253.52l237.39 230.26 228.83 226.8 -466.22 460.05 0 340.75 204.03 -202.83 207.69 -203.99 408.92 -411.27 -406.27 -400.5 -414.37 -399.48 0 360.21zm0 -2625.95l464.42 453.88 -230.45 233.52 -233.97 229.35 0 339.87 411.2 -406.26 409.72 -411.05 -820.92 -799.92 0 360.61zm21000 3241.85l0 -279.27 -501.93 -497.1 501.93 -500.17 0 -374.59 -875.42 875.81 195.91 199.44 411.51 411.74 211.22 204.92 56.78 -40.78zm0 -2626.08l0 -279.43 -497.6 -493.32 497.6 -503.5 0 -375.76 -221.45 217.69 -220.29 219.89 -433.29 439.06 194.89 200.13 623.36 615.69 56.78 -40.45zm0 -2626.24l0 -280.32 -501.94 -496.49 501.94 -500.63 0 -374.68 -875.09 876.97 607.46 610.9 210.85 204.47 56.78 -40.22zm-1136.82 7488.9l293.7 0 -362.08 -366.39 1205.2 -1212.92 0 -340.68 -71.29 58.22 -569.21 -563.94 -564.74 -566.55 142.74 -156.89 451.93 -456.54 610.57 -599.26 0 -341.12 -71.56 58.53 -1133.28 -1130.68 1204.84 -1213.97 0 -339.51 -72.7 56 -574.4 -569.66 -558.25 -579.08 302.74 -303.46 596.24 -596.12 306.37 -293.96 0 -341.18 -70.98 55.08 -384.84 -375.32 -371.33 -384.9 -292.09 0 900.09 914.71 -866.44 867.11 -291.33 292.12 -484.24 -480.7 361.54 -353.25 348.71 -363.96 -151.7 -153.52 -867.5 853.13 489.79 487.94 241.32 241.32 731.82 744.57 240.83 241.63 247.2 249.68 -1157.77 1159.04 -480.29 -469.32 707.3 -729.01 -152.45 -153.55 -867.08 853.78 1950.29 1965.14 -1157.77 1160.54 -479.84 -471.55 706.24 -727.39 -151.68 -153.78 -441.36 429.69 -428.72 439.12 490.86 473.35 1461.66 1476.71 -283.31 285.31 -722.44 725.13 -151.41 149.68 -480.73 -469.97 708.3 -730.22 -153.53 -152.38 -870.01 867.97 1036.07 1035.23zm-19863.18 -9157.55l0 380.48 430.93 425.23 138.85 130.8 137.21 146.94 418.31 422.99 -845.11 848.02 -280.19 272.05 0 379.54 288 284.84 418.93 418.62 418.67 423.01 -844.78 848.37 -280.82 271.64 0 380.16 638.28 629.73 75.16 66.64 412.16 429.53 -1125.6 1119.91 0 380.98 900.9 898.07 294.15 0 -1048.98 -1059.07 279.49 -289.74 295.4 -286.63 584.98 -582.79 35.99 24.28 29.23 28.13 410.3 419.83 -702.58 725.45 166.21 155.85 213.95 -217.21 219.27 -206.54 423.22 -423.98 -235.56 -252.92 -248.87 -247.99 -978.63 -980.23 -491.63 -493.36 864.56 -866.15 294.54 -291.82 36.34 24.46 81.47 89.37 357.49 359 -703.09 725.11 166.84 156.16 213.82 -217.4 218.84 -206.98 423.15 -423.16 -972.61 -991.58 -980.9 -982.3 277.49 -289.58 294.88 -287.06 586.28 -582 475.41 472.71 -700.06 709.75 164.2 170.8 219.43 -210.49 635.88 -636.61 -482.99 -501.46 -1471.02 -1472.64 277.47 -289.52 294.99 -287.07 586.69 -581.99 238.78 234.37 236.52 238.79 -700.22 709.75 168.14 166.08 216.13 -205.42 636.29 -637.4 -667.6 -686.27 -223.51 -226.83 -292.8 0 209.74 206.92 -66.12 88.22 -1061.29 1051.61zm11984.56 9157.55l292.93 0 -361.9 -364.18 246.73 -268.8 1781.66 -1781.28 -824.34 -795.36 -167.98 166.89 635.54 647.06 -536.4 530.34 -286.97 -275.04 -66.22 -75.71 -781.57 -774.51 246.01 -268.65 1534.6 -1531.41 247.27 -249.69 -825.08 -795.71 -166.9 167.29 635.54 646.17 -536.68 530.99 -1135.15 -1125.12 246.43 -268.64 1781.45 -1781.11 -205.61 -203.06 -619.62 -592.92 -165.81 167.9 634.68 646.2 -536.37 531.01 -860.92 -851.03 -274.4 -298.13 253.04 -252.68 1773.77 -1772.3 -207.07 -212.82 -370.68 0 222.08 229.77 -535.82 530.17 -193.58 -183.18 -563.54 -576.76 -292.92 0 221.16 232.71 674.07 675.77 -286.29 297.31 -864.84 868.15 -480.96 -486.16 357.6 -348.46 347.73 -361.59 -148.33 -157.18 -870.01 855.09 488.9 489.61 485.68 493.88 970.63 975.43 -1153.84 1168.41 -478.58 -470.69 705.38 -727.69 -148.66 -158.57 -656.33 644.02 -212.49 211.68 487.79 489.99 974.14 984.86 482.45 484.06 -576.87 588.4 -577.03 581.2 -478.38 -470.87 706.03 -729.92 -148.98 -156.24 -663.69 650.1 -207.65 220.13 738.26 722.97 1207.73 1220.31 -576.51 588.11 -574.01 579.13 -481.18 -469.08 705.74 -728.18 -149.25 -157.91 -868.5 855.09 1032.89 1050.43zm-10495.7 0l292.93 0 -361.9 -364.18 246.73 -268.8 1781.65 -1781.28 -824.34 -795.36 -167.97 166.89 635.54 647.06 -536.4 530.34 -286.97 -275.04 -66.22 -75.71 -781.58 -774.51 246.01 -268.65 1534.61 -1531.41 247.27 -249.69 -825.08 -795.71 -166.91 167.29 635.54 646.17 -536.67 530.99 -1135.16 -1125.12 246.44 -268.64 1781.45 -1781.11 -205.61 -203.06 -619.63 -592.92 -165.8 167.9 634.68 646.2 -536.37 531.01 -860.92 -851.03 -274.4 -298.13 253.03 -252.68 1773.78 -1772.3 -207.07 -212.82 -370.68 0 222.08 229.77 -535.82 530.17 -193.59 -183.18 -563.53 -576.76 -292.92 0 221.16 232.71 674.07 675.77 -286.29 297.31 -864.84 868.15 -480.96 -486.16 357.59 -348.46 347.73 -361.59 -148.32 -157.18 -870.01 855.09 488.9 489.61 485.68 493.88 970.63 975.43 -1153.84 1168.41 -478.59 -470.69 705.38 -727.69 -148.65 -158.57 -656.33 644.02 -212.49 211.68 487.79 489.99 974.13 984.86 482.46 484.06 -576.88 588.4 -577.02 581.2 -478.39 -470.87 706.04 -729.92 -148.98 -156.24 -663.69 650.1 -207.66 220.13 738.26 722.97 1207.74 1220.31 -576.51 588.11 -574.01 579.13 -481.19 -469.08 705.75 -728.18 -149.25 -157.91 -868.51 855.09 1032.9 1050.43zm13121.05 0l293.82 0 -361.46 -364.94 1773.76 -1792.26 254.41 -257.51 -406.98 -399.81 -420.45 -397.72 -163.94 171 632.88 643.29 -532.92 534.87 -572.23 -561.98 -564.85 -565.3 239.41 -261.49 255.9 -255.16 1023.3 -1020.87 509.32 -513.01 -827.03 -797.37 -164.48 171.09 315.22 326.05 317.97 317.37 -535.25 536.07 -1134.33 -1129.8 494.35 -516.58 1023.59 -1020.49 510.35 -512.58 -827.76 -797.93 -163.48 170.86 315.62 325.98 316.91 317.84 -532.5 534.42 -571.65 -561.86 -565.58 -588.12 501.99 -500.9 510.76 -511.31 1014.25 -1014.28 -207.2 -211.87 -371.19 0 222.92 229.88 -536.48 529.92 -192.82 -183.7 -564.25 -576.1 -291.2 0 446.74 459.55 447.22 448.93 -1151.64 1165.35 -243.91 -240.07 -236.49 -244.31 704.94 -712.01 -147.77 -157.5 -445.07 430.59 -212.21 213.66 -213.71 211.45 489.54 489.22 485.31 494.19 488.31 491.11 481.97 484.4 -576.56 588.54 -574.35 577.31 -480.95 -468.8 535.72 -542.91 170.43 -184.94 -148.49 -157.74 -871.04 855.7 489.43 489.44 1456.26 1469.47 -577.6 587.91 -573.76 578.36 -244.76 -240.14 -235.97 -228.29 705.33 -727.9 -148.45 -158.14 -443.47 431.31 -429.21 439.42 976.55 968.62 488.7 490.72 482.83 484.21 -867.24 880.56 -287 289.01 -477.76 -472.41 705.32 -727.21 -148.83 -157.72 -869.17 854.93 1032.11 1050.43zm-10495.7 0l293.82 0 -361.47 -364.94 1773.77 -1792.26 254.4 -257.51 -406.97 -399.81 -420.45 -397.72 -163.95 171 632.89 643.29 -532.92 534.87 -572.24 -561.98 -564.85 -565.3 239.42 -261.49 255.9 -255.16 1023.3 -1020.87 509.32 -513.01 -827.04 -797.37 -164.47 171.09 315.22 326.05 317.97 317.37 -535.25 536.07 -1134.33 -1129.8 494.35 -516.58 1023.59 -1020.49 510.35 -512.58 -827.76 -797.93 -163.48 170.86 315.61 325.98 316.92 317.84 -532.5 534.42 -571.65 -561.86 -565.58 -588.12 501.99 -500.9 510.76 -511.31 1014.24 -1014.28 -207.2 -211.87 -371.18 0 222.92 229.88 -536.49 529.92 -192.82 -183.7 -564.24 -576.1 -291.2 0 446.74 459.55 447.22 448.93 -1151.64 1165.35 -243.91 -240.07 -236.49 -244.31 704.94 -712.01 -147.78 -157.5 -445.07 430.59 -212.2 213.66 -213.71 211.45 489.54 489.22 485.31 494.19 488.3 491.11 481.98 484.4 -576.56 588.54 -574.35 577.31 -480.96 -468.8 535.73 -542.91 170.42 -184.94 -148.48 -157.74 -871.04 855.7 489.43 489.44 1456.25 1469.47 -577.59 587.91 -573.76 578.36 -244.76 -240.14 -235.97 -228.29 705.32 -727.9 -148.44 -158.14 -443.47 431.31 -429.21 439.42 976.54 968.62 488.7 490.72 482.84 484.21 -867.24 880.56 -287 289.01 -477.77 -472.41 705.33 -727.21 -148.83 -157.72 -869.18 854.93 1032.12 1050.43zm13122.84 0l293.2 0 -362.23 -364.35 247.23 -267.79 1279.2 -1275.92 255.58 -255.37 245.35 -250.13 -807.26 -795.71 -183.25 168.04 632.88 643.28 -264.91 268.75 -274.68 268.05 -1130.25 -1130.1 2028.77 -2050.09 -206.42 -202.37 -619.02 -591.65 -165.32 168.77 634.23 644.36 -542.68 535.47 -1130.01 -1130.35 1525.95 -1544.2 502.11 -505.15 -807.4 -795.96 -100.73 85.97 -86.1 88 639.14 639.93 -538.87 532.66 -290.84 -285.6 -842.81 -863.7 1525.09 -1522.59 502.27 -504.22 -206.96 -212.33 -370.57 0 222.03 229.59 -536.82 530.18 -384.39 -375.38 -372 -384.39 -292.04 0 899.53 915.43 -1157.04 1158.74 -480.96 -485.83 706.05 -712 -148.33 -156.67 -870.26 855.97 976.15 981.35 974.33 984.57 -576.21 573.8 -289.47 292.46 -291.3 292.9 -480.96 -469.22 705.9 -728.5 -148.18 -157.26 -870.54 855.98 248.07 248.02 1697.29 1710.89 -1151.58 1166.13 -480.85 -469.02 706.41 -727.67 -149.97 -157.37 -869.43 855.09 737.63 737.58 236.68 246.02 971.08 975.32 -1151.55 1166.54 -481.46 -468.1 706.46 -729.4 -148.85 -156.25 -872.13 869.23 914.34 902.75 121.68 132.82zm-10495.71 0l293.21 0 -362.23 -364.35 247.23 -267.79 1279.2 -1275.92 255.58 -255.37 245.35 -250.13 -807.26 -795.71 -183.26 168.04 632.88 643.28 -264.9 268.75 -274.68 268.05 -1130.26 -1130.1 2028.78 -2050.09 -206.43 -202.37 -619.01 -591.65 -165.32 168.77 634.23 644.36 -542.68 535.47 -1130.01 -1130.35 1525.95 -1544.2 502.11 -505.15 -807.4 -795.96 -100.73 85.97 -86.1 88 639.14 639.93 -538.87 532.66 -290.84 -285.6 -842.82 -863.7 1525.1 -1522.59 502.26 -504.22 -206.95 -212.33 -370.57 0 222.02 229.59 -536.81 530.18 -384.39 -375.38 -372.01 -384.39 -292.03 0 899.53 915.43 -1157.04 1158.74 -480.96 -485.83 706.04 -712 -148.32 -156.67 -870.26 855.97 976.15 981.35 974.33 984.57 -576.21 573.8 -289.48 292.46 -291.29 292.9 -480.96 -469.22 705.89 -728.5 -148.17 -157.26 -870.54 855.98 248.07 248.02 1697.28 1710.89 -1151.57 1166.13 -480.85 -469.02 706.4 -727.67 -149.96 -157.37 -869.43 855.09 737.62 737.58 236.68 246.02 971.09 975.32 -1151.55 1166.54 -481.46 -468.1 706.45 -729.4 -148.84 -156.25 -872.13 869.23 914.34 902.75 121.67 132.82zm5880.11 0l374.07 0 -373.16 -383.31 500.92 -508.03 900.02 891.34 293.75 0 -1047.71 -1059.01 285.55 -296.45 295.72 -286.28 577.11 -576.3 72.64 58.91 52.34 61.15 350.75 351.99 -440.45 446.98 -261.74 256.71 169.67 173.1 851.82 -842.39 -490.44 -509.33 -1463.3 -1464.66 285.43 -296.35 295.23 -286.9 440.21 -439.82 157.54 -138.91 456.28 475.5 -271.11 275.86 -81.02 89.32 -347.96 355.77 167.32 155.67 427.28 -421.05 425.26 -421.12 -241.96 -261.78 -1712.72 -1713.27 284.88 -296.15 874.05 -862.29 246.31 240.84 229.81 232.12 -704.96 714.59 172.05 161.7 853.15 -842 -242.41 -261.75 -248.79 -248.09 -1463.82 -1465.94 870.64 -873.19 291.24 -288.02 115.52 116.54 246.03 236.7 111.04 123.39 -345.34 357.56 -358.4 356.31 171.14 162.08 105.36 -103.49 111.02 -101.83 636.38 -637.18 -221.19 -239.12 -670.15 -674.42 -292.51 0 208.85 206.58 -57.46 82.57 -437.36 442.48 -1509.68 1511.35 820.81 812.56 184.81 -170.45 -631.29 -646.62 503.26 -506.32 707.41 697.54 417.97 423.5 -499.95 511.82 -509.52 498.37 -993.49 1005.67 820.8 812.92 184.64 -170.03 -630.43 -648.29 502.57 -504.98 569.89 550.52 136.77 147.36 147.61 136.42 136.97 146.67 134.53 139.63 -1009.34 1010.68 -993.41 1004.62 615.59 616.65 204.61 196.91 184.81 -169.94 -313.5 -330.01 -317.28 -316.75 502.75 -506.29 288.03 278.56 564.9 556.7 137.54 146.18 134.85 138.76 -498.69 512.89 -510.04 498.11 -751.54 752.93 -242.49 252.38 377.11 382.65zm-10495.7 0l374.07 0 -373.16 -383.31 500.92 -508.03 900.02 891.34 293.75 0 -1047.71 -1059.01 285.55 -296.45 295.72 -286.28 577.11 -576.3 72.63 58.91 52.35 61.15 350.75 351.99 -440.45 446.98 -261.74 256.71 169.67 173.1 851.82 -842.39 -490.45 -509.33 -1463.29 -1464.66 285.43 -296.35 295.22 -286.9 440.22 -439.82 157.54 -138.91 456.28 475.5 -271.11 275.86 -81.02 89.32 -347.96 355.77 167.32 155.67 427.28 -421.05 425.26 -421.12 -241.96 -261.78 -1712.73 -1713.27 284.89 -296.15 874.05 -862.29 246.31 240.84 229.81 232.12 -704.96 714.59 172.05 161.7 853.15 -842 -242.41 -261.75 -248.8 -248.09 -1463.81 -1465.94 870.64 -873.19 291.24 -288.02 115.52 116.54 246.03 236.7 111.04 123.39 -345.34 357.56 -358.4 356.31 171.14 162.08 105.36 -103.49 111.02 -101.83 636.38 -637.18 -221.19 -239.12 -670.15 -674.42 -292.51 0 208.85 206.58 -57.46 82.57 -437.36 442.48 -1509.68 1511.35 820.8 812.56 184.82 -170.45 -631.29 -646.62 503.25 -506.32 707.42 697.54 417.97 423.5 -499.95 511.82 -509.53 498.37 -993.49 1005.67 820.8 812.92 184.65 -170.03 -630.44 -648.29 502.57 -504.98 569.9 550.52 136.76 147.36 147.62 136.42 136.97 146.67 134.52 139.63 -1009.33 1010.68 -993.41 1004.62 615.59 616.65 204.6 196.91 184.82 -169.94 -313.5 -330.01 -317.28 -316.75 502.74 -506.29 288.04 278.56 564.9 556.7 137.54 146.18 134.85 138.76 -498.69 512.89 -510.04 498.11 -751.54 752.93 -242.49 252.38 377.11 382.65zm15748.24 0l374.51 0 -373.21 -383.23 499.78 -508.3 900.38 891.53 293.75 0 -1048.04 -1059.34 286.68 -295.31 586.32 -577.7 305.96 -288.13 456.01 474.49 -703.51 705.4 170.46 172.17 639.21 -635.84 103.39 -109.51 111 -96.88 -1463.8 -1483.41 -248.47 -248.29 -242.64 -242.46 285.68 -296.34 892.23 -866.02 457.28 475.11 -349.32 354.92 -353.45 349.38 168.89 172.73 428.79 -419.84 424.08 -422.02 -973.16 -993.56 -981.02 -980.48 285.3 -296.65 295.76 -286.24 432.93 -432.95 164.47 -146.58 226.23 242.81 230.2 232.4 -350.3 353.63 -349.31 356.12 164.09 168.77 854.98 -844.34 -234.64 -255.06 -1476.45 -1476.18 -243.15 -241.98 573.47 -575.93 584.52 -583.29 476.4 472.19 -699.44 709.75 164.06 168.81 212.09 -214.4 219.2 -206.69 424.27 -423.35 -891.5 -914.21 -292.35 0 207.96 227.12 -254.61 261.66 -1747.33 1751.19 818.53 815.79 182.58 -188.98 -628.03 -628.25 502.23 -506.21 1126.79 1120.87 -254.5 261.91 -1749.3 1753.26 820.23 813.23 36.61 -23.49 22.23 -20.83 125.63 -125.27 -625.97 -643.11 512.47 -510.25 282.12 284.99 557.92 549.2 137.78 146.03 71.88 70.16 63.4 70.25 -254.82 262.07 -245.85 250.84 -508.02 499.97 -751.65 753.01 -242.48 247.97 614.06 618.24 204.69 197.04 184.81 -169.84 -626.58 -643.61 512.74 -509.49 281.68 284.55 557.13 550.13 273.74 285.19 -2003.66 2015.51 376.98 383.45zm-10495.71 0l374.52 0 -373.22 -383.23 499.79 -508.3 900.38 891.53 293.74 0 -1048.03 -1059.34 286.68 -295.31 586.32 -577.7 305.96 -288.13 456.01 474.49 -703.52 705.4 170.47 172.17 639.21 -635.84 103.39 -109.51 110.99 -96.88 -1463.79 -1483.41 -248.48 -248.29 -242.63 -242.46 285.67 -296.34 892.23 -866.02 457.29 475.11 -349.32 354.92 -353.45 349.38 168.89 172.73 428.79 -419.84 424.08 -422.02 -973.16 -993.56 -981.02 -980.48 285.3 -296.65 295.76 -286.24 432.93 -432.95 164.47 -146.58 226.23 242.81 230.19 232.4 -350.29 353.63 -349.31 356.12 164.08 168.77 854.99 -844.34 -234.64 -255.06 -1476.45 -1476.18 -243.15 -241.98 573.47 -575.93 584.51 -583.29 476.4 472.19 -699.43 709.75 164.06 168.81 212.09 -214.4 219.2 -206.69 424.27 -423.35 -891.5 -914.21 -292.35 0 207.96 227.12 -254.61 261.66 -1747.34 1751.19 818.53 815.79 182.59 -188.98 -628.03 -628.25 502.22 -506.21 1126.8 1120.87 -254.5 261.91 -1749.3 1753.26 820.22 813.23 36.62 -23.49 22.23 -20.83 125.63 -125.27 -625.97 -643.11 512.47 -510.25 282.11 284.99 557.92 549.2 137.79 146.03 71.88 70.16 63.4 70.25 -254.83 262.07 -245.84 250.84 -508.02 499.97 -751.66 753.01 -242.48 247.97 614.07 618.24 204.68 197.04 184.82 -169.84 -626.59 -643.61 512.75 -509.49 281.68 284.55 557.12 550.13 273.75 285.19 -2003.66 2015.51 376.97 383.45zm7869.41 0l374.58 0 -373.62 -382.67 508.87 -514.66 891.56 897.33 293.54 0 -1047.53 -1059.34 286.14 -295.93 295.42 -286.46 577.14 -576.06 28.52 16.71 217.36 223.43 230.44 231.66 -173.8 174.76 -526.22 534.99 166.92 167.92 318.4 -317.86 109.25 -103.71 108.16 -104.84 100.82 -112.06 216.07 -204.74 -980.9 -999.27 -973.5 -974.9 285.7 -295.77 295.67 -286.36 596.81 -578.84 226.52 242.58 229.77 232.03 -352.82 364.52 -347.66 357.15 167.71 155.44 429.28 -419.43 423.14 -422.84 -1469.13 -1490.68 -484.88 -483.59 284.89 -296.77 295.39 -286.64 440.55 -439.48 157.91 -138.86 455.95 475.1 -181.86 180.9 -170.47 184.41 -347.1 354.39 166.33 156.72 429.09 -418.94 423.67 -423.64 -980.52 -999 -973.28 -974.21 1161.77 -1162.66 472.26 475.96 -703.72 713.52 170.73 162.23 210.71 -210.79 642.6 -630.84 -891.34 -914.21 -292.79 0 102.1 115.2 105.61 111.92 -248.4 253.07 -245.18 251.76 -1509.22 1510.08 816.58 816.96 188.2 -173.57 -626.33 -642.61 499.53 -509.43 280.74 270.08 418.18 419.3 147.51 136.39 258.4 267.6 19.74 26.44 -1754.16 1756.43 -247.95 258.43 816.07 817.5 188.55 -173.77 -627 -642.89 500.35 -508.67 698.39 688.71 146.93 136.97 279.24 293.37 -246.66 254.99 -1757.31 1760.48 816.83 817.45 189.23 -173.9 -627.3 -643.33 513.19 -509.77 555.41 550.43 129.79 140.04 147.52 136.57 279.38 293.11 -1000.11 1006.31 -1002.05 1008.11 375.7 384.54z"/>
   </g>
  </g>
  <polygon class="fil2" points="-7.13,6.13 20992.87,6.13 20992.87,5006.13 -7.13,5006.13 "/>
 </g>
</svg>
